<svg id="Capa_1" data-name="Capa 1" xmlns="http://www.w3.org/2000/svg" viewBox="0 0 258 50"><defs><style>.cls-1{fill:#5f5f5f;}</style></defs><title>Mesa de trabajo 2</title><path class="cls-1" d="M10.43,46.44C4.54,46.44,1,42.77,1,36.95A20.39,20.39,0,0,1,5.32,25.05c3.12-4,7.39-6.19,11.59-6.19,4.68,0,7.81,2.46,7.81,5.83a3.71,3.71,0,0,1-3.84,3.78,3,3,0,0,1-3.18-3c0-1.32.78-2.22.78-3,0-.6-.6-1-1.68-1-1.62,0-3.12,1.26-4.69,3.72A27.47,27.47,0,0,0,8.39,37.91C8.39,41.21,10,43,12.65,43c2.94,0,5.17-1.92,8-5.59l1.56,1.2C18.78,43.86,15,46.44,10.43,46.44Z"/><path class="cls-1" d="M72.91,3.56a4,4,0,0,1,4,4,4,4,0,0,1-4,4,4.17,4.17,0,0,1-4-4A4,4,0,0,1,72.91,3.56Z"/><path class="cls-1" d="M60.93,3.56a4,4,0,0,1,4,4,4,4,0,0,1-4,4,4.17,4.17,0,0,1-4-4A4,4,0,0,1,60.93,3.56Z"/><path class="cls-1" d="M84.88,3.56a4,4,0,0,1,4,4,4,4,0,0,1-4,4,4.17,4.17,0,0,1-4-4A4,4,0,0,1,84.88,3.56Z"/><path class="cls-1" d="M78.6,35.93a18.89,18.89,0,0,1,4.14-11.35,14.6,14.6,0,0,1,12-5.65c6.37,0,10.51,4.33,10.51,10.39,0,9.43-7.45,17.12-15.86,17.12C82.69,46.44,78.6,42.35,78.6,35.93Zm15.68,3.84c2.76-5.11,4.08-10.69,4.08-13.64s-1.2-4.69-3.42-4.69c-1.92,0-3.54,1-4.81,3.18-2.94,4.87-4.57,11.23-4.57,14.6,0,3.06,1.2,4.69,3.42,4.69S92.78,42.59,94.28,39.77Z"/><path class="cls-1" d="M55.18,38.44c-1.44,2.54-2.52,3.85-3.45,3.85a1,1,0,0,1-1-1.08,8.37,8.37,0,0,1,.36-1.68l2.58-9.25c.78-2.7,1.44-4.75,1.44-6.37,0-3.06-1.92-5-5.17-5-4.27,0-7.51,2.76-10.33,8.35l-.18-.12a26.62,26.62,0,0,0,.48-3.9c0-2.82-1.68-4.33-3.84-4.33-3.11,0-6.27,2.53-8.4,7.4l1.62.5c1.18-2.3,2.57-3.81,3.43-3.67.58.09.66.56.65,1.53,0,2.46-2,9.37-5.35,20.9h6.67C38.93,30.58,43.26,23,46.74,23a1.27,1.27,0,0,1,1.44,1.44,13.6,13.6,0,0,1-.6,2.76L44.34,38.69a13.71,13.71,0,0,0-.54,3.42c0,2.82,1.68,4.33,4.57,4.33,3.48,0,5.75-2.34,8.1-7.12Z"/><path class="cls-1" d="M73.58,38.3c-1.49,2.57-2.76,3.87-3.75,3.87-.66,0-1-.42-1-1.26a7.07,7.07,0,0,1,.48-2.28l3.54-11.05a13.39,13.39,0,0,0,.78-4.2c0-2.7-1.86-4.45-5-4.45-3.55,0-6.42,2.39-8.94,7.3l1.79.56c1.41-2.42,2.77-3.6,3.55-3.6s1.14.36,1.14,1.2a7.76,7.76,0,0,1-.48,2.28L62.14,37.73a13,13,0,0,0-.84,4.2c0,2.7,1.92,4.51,5,4.51,3.52,0,6.39-2.34,8.87-7.07Z"/><path class="cls-1" d="M120.5,30.19a1.62,1.62,0,0,1,1.63-1.71,1.37,1.37,0,0,1,1.51,1.37,1.59,1.59,0,0,1-.78,1.34c.21.45,1.48.81,2.41.81,1.75,0,2.78-.84,2.78-2.16,0-1.12-.54-1.71-2.66-2.8-1.9-1-2.81-2-2.81-3.33,0-2.16,1.75-4,4.92-4,2.38,0,4.07,1.29,4.07,2.69A1.5,1.5,0,0,1,130,24a1.37,1.37,0,0,1-1.51-1.26,1.64,1.64,0,0,1,.75-1.37,2.55,2.55,0,0,0-1.93-.7c-1.54,0-2.44.84-2.44,2,0,1,.42,1.54,2.44,2.61s2.93,2,2.93,3.5c0,2-1.57,4.17-5.13,4.17C122.62,33,120.5,31.82,120.5,30.19Z"/><path class="cls-1" d="M138.82,21l-2.53,8a6.07,6.07,0,0,0-.27,1.4c0,.78.48,1.09,1.57,1.09a11,11,0,0,0,2.75-.48l-.09.9a11.08,11.08,0,0,1-4,1c-2,0-2.87-.81-2.87-2.19a4.79,4.79,0,0,1,.27-1.43L136.25,21H133.6l.39-1.15h2.66L137.82,16l2.81-.36-1.45,4.23h3.5L142.32,21Z"/><path class="cls-1" d="M154.8,24.9A7.94,7.94,0,0,1,147,33c-2.93,0-4.95-2-4.95-5.21a7.92,7.92,0,0,1,7.75-8.1C152.78,19.68,154.8,21.73,154.8,24.9Zm-2.63-.9c0-2.24-.81-3.31-2.59-3.31-3.41,0-4.86,5.32-4.86,8,0,2.16.81,3.31,2.59,3.31C150.73,32,152.17,26.66,152.17,24Z"/><path class="cls-1" d="M157.88,36.36c-.15.59.45.76,2.66.81v1h-8.09v-1c1.81-.08,2.47-.34,2.63-.87l1-3.05,3.11-10.87c.27-1,.06-1.26-1.9-1.37V20l5.19-.17L162,21.51l.12.11c1.54-1.18,2.75-1.93,4.41-1.93,2,0,3.56,1.43,3.56,4.15,0,4-3.8,9.08-8.42,9.08a5.75,5.75,0,0,1-2.66-.64Zm9.35-12.13c0-1.74-.54-3-2.23-3a5.57,5.57,0,0,0-3.41,1.68l-2,7.37A2.37,2.37,0,0,0,162,31.85C165.09,31.85,167.23,28,167.23,24.22Z"/><path class="cls-1" d="M187,22.4a1.71,1.71,0,0,1-1.75,1.91,1.38,1.38,0,0,1-1.54-1.43,1.81,1.81,0,0,1,1-1.51,1.9,1.9,0,0,0-1.57-.7c-3,0-5,4.12-5,7.34,0,2.13,1.09,3.64,3,3.64a5.11,5.11,0,0,0,4-2.24l.84.7A6.56,6.56,0,0,1,180.62,33a4.92,4.92,0,0,1-5.22-5.16c0-4.06,3.53-8.15,7.63-8.15C185.26,19.68,187,20.81,187,22.4Z"/><path class="cls-1" d="M199.14,29.49a4.54,4.54,0,0,0-.24,1.2c0,.87.66,1.09,2.56,1.09v.9a8.63,8.63,0,0,1-2.26.28c-1.63,0-2.47-.34-2.47-1.6a7.09,7.09,0,0,1,.12-1.09l-.12,0c-1.51,2-2.87,2.75-4.65,2.75-2.47,0-4-1.57-4-4.34,0-4,3.89-9,8.15-9a3,3,0,0,1,3,1.74l.48-1.4,2.72-.31-1.75,4.54Zm-8.27-1.09c0,2.07.75,3.08,2.35,3.08,1.3,0,2.63-1.09,3.65-3l1.72-5.3c-.18-1.65-1.15-2.49-2.35-2.49C193,20.69,190.88,25.88,190.88,28.4Z"/><path class="cls-1" d="M206.77,22.37c.27-1,.06-1.26-1.9-1.37V20l5.1-.17-.72,2,.12.11a9.31,9.31,0,0,1,5.37-2.24c1.81,0,2.78.92,2.78,2.52a5.51,5.51,0,0,1-.33,1.82l-1.87,5.24a4.93,4.93,0,0,0-.33,1.43c0,.78.66,1,2.53,1v.9a11.7,11.7,0,0,1-2.72.28c-1.57,0-2.44-.48-2.44-1.65a3.9,3.9,0,0,1,.3-1.4l1.9-5.44a4,4,0,0,0,.3-1.43c0-1-.57-1.54-1.93-1.54s-2.5.64-4.07,1.82l-2.47,9.44h-3L205,28.23Z"/><path class="cls-1" d="M231.09,22.4a1.71,1.71,0,0,1-1.75,1.91,1.38,1.38,0,0,1-1.54-1.43,1.81,1.81,0,0,1,1-1.51,1.9,1.9,0,0,0-1.57-.7c-3,0-5,4.12-5,7.34,0,2.13,1.09,3.64,3,3.64a5.11,5.11,0,0,0,4-2.24l.84.7A6.56,6.56,0,0,1,224.69,33a4.92,4.92,0,0,1-5.22-5.16c0-4.06,3.53-8.15,7.63-8.15C229.34,19.68,231.09,20.81,231.09,22.4Z"/><path class="cls-1" d="M235,27c0,.36-.06.76-.06,1.12,0,2.19.84,3.53,2.87,3.53a5.38,5.38,0,0,0,4.1-2.21l.84.73A6.93,6.93,0,0,1,237.23,33c-2.35,0-5-1.23-5-4.71,0-4.15,3.47-8.6,8-8.6,2.53,0,4,1.18,4,2.83C244.2,24.67,241.42,26.91,235,27Zm.15-.92c5.4-.28,6.49-2,6.49-3.84,0-1-.48-1.51-1.66-1.51C237.86,20.72,235.84,23.13,235.18,26.07Z"/><path class="cls-1" d="M257,21.51a1.77,1.77,0,0,1-1.78,2c-.94,0-1.54-.45-1.54-1.34a1.88,1.88,0,0,1,.24-.84,6.67,6.67,0,0,0-3.92,2.8l-2.29,8.66h-3l1.66-4.54,1.75-5.86c.27-1,.06-1.26-1.9-1.37V20l5.1-.17-.69,2.33.12.11c1.39-1.48,2.81-2.52,4.38-2.52A1.75,1.75,0,0,1,257,21.51Z"/></svg>